<mxfile host="65bd71144e">
    <diagram id="IpP2WDs2np4hdh_sod9k" name="Page-1">
        <mxGraphModel dx="778" dy="3384" grid="1" gridSize="10" guides="1" tooltips="1" connect="1" arrows="1" fold="1" page="1" pageScale="1" pageWidth="850" pageHeight="1100" math="0" shadow="0">
            <root>
                <mxCell id="0"/>
                <mxCell id="1" parent="0"/>
                <mxCell id="123" value="" style="ellipse;whiteSpace=wrap;html=1;aspect=fixed;strokeColor=#00CC00;perimeterSpacing=7;strokeWidth=5;" vertex="1" parent="1">
                    <mxGeometry x="2810" y="-815" width="2910" height="2910" as="geometry"/>
                </mxCell>
                <mxCell id="124" value="" style="ellipse;whiteSpace=wrap;html=1;aspect=fixed;strokeColor=#FF0000;strokeWidth=5;" vertex="1" parent="1">
                    <mxGeometry x="3484.25" y="-154.25" width="1564.5" height="1564.5" as="geometry"/>
                </mxCell>
                <mxCell id="125" value="" style="ellipse;whiteSpace=wrap;html=1;aspect=fixed;strokeColor=#FFFF00;strokeWidth=5;" vertex="1" parent="1">
                    <mxGeometry x="3929.88" y="289.38" width="670.25" height="670.25" as="geometry"/>
                </mxCell>
                <mxCell id="126" value="CheepDTO&lt;br&gt;" style="swimlane;fontStyle=1;align=center;verticalAlign=top;childLayout=stackLayout;horizontal=1;startSize=26;horizontalStack=0;resizeParent=1;resizeParentMax=0;resizeLast=0;collapsible=1;marginBottom=0;whiteSpace=wrap;html=1;" vertex="1" parent="1">
                    <mxGeometry x="4045" y="425" width="160" height="100" as="geometry"/>
                </mxCell>
                <mxCell id="127" value="+ AuthorID int&lt;br&gt;+ Author string&lt;br&gt;+ Message string&lt;br&gt;+ Timestamp Datetime" style="text;strokeColor=none;fillColor=none;align=left;verticalAlign=top;spacingLeft=4;spacingRight=4;overflow=hidden;rotatable=0;points=[[0,0.5],[1,0.5]];portConstraint=eastwest;whiteSpace=wrap;html=1;" vertex="1" parent="126">
                    <mxGeometry y="26" width="160" height="74" as="geometry"/>
                </mxCell>
                <mxCell id="128" style="edgeStyle=none;html=1;entryX=1;entryY=0.5;entryDx=0;entryDy=0;fontColor=#080808;endArrow=classic;endFill=1;" edge="1" parent="1" source="129" target="127">
                    <mxGeometry relative="1" as="geometry"/>
                </mxCell>
                <mxCell id="129" value="AuthorDTO" style="swimlane;fontStyle=1;align=center;verticalAlign=top;childLayout=stackLayout;horizontal=1;startSize=26;horizontalStack=0;resizeParent=1;resizeParentMax=0;resizeLast=0;collapsible=1;marginBottom=0;whiteSpace=wrap;html=1;" vertex="1" parent="1">
                    <mxGeometry x="4315" y="394" width="180" height="100" as="geometry"/>
                </mxCell>
                <mxCell id="130" value="+ int AthorID&lt;br&gt;+ string Name&lt;br&gt;+ string Email&lt;br&gt;+ List &amp;lt;CheepDTO&amp;gt; Cheeps" style="text;strokeColor=none;fillColor=none;align=left;verticalAlign=top;spacingLeft=4;spacingRight=4;overflow=hidden;rotatable=0;points=[[0,0.5],[1,0.5]];portConstraint=eastwest;whiteSpace=wrap;html=1;" vertex="1" parent="129">
                    <mxGeometry y="26" width="180" height="74" as="geometry"/>
                </mxCell>
                <mxCell id="131" style="edgeStyle=none;html=1;entryX=0.5;entryY=1;entryDx=0;entryDy=0;fontColor=#080808;endArrow=block;endFill=0;" edge="1" parent="1" source="132" target="136">
                    <mxGeometry relative="1" as="geometry"/>
                </mxCell>
                <mxCell id="132" value="CheepCreateValidator&lt;br&gt;" style="swimlane;fontStyle=1;align=center;verticalAlign=top;childLayout=stackLayout;horizontal=1;startSize=26;horizontalStack=0;resizeParent=1;resizeParentMax=0;resizeLast=0;collapsible=1;marginBottom=0;whiteSpace=wrap;html=1;" vertex="1" parent="1">
                    <mxGeometry x="3985" y="674" width="290" height="86" as="geometry">
                        <mxRectangle x="2620" y="260" width="170" height="30" as="alternateBounds"/>
                    </mxGeometry>
                </mxCell>
                <mxCell id="133" value="Record CheepCreateDTO(string author, string Text)" style="text;align=left;verticalAlign=top;spacingLeft=4;spacingRight=4;overflow=hidden;rotatable=0;points=[[0,0.5],[1,0.5]];portConstraint=eastwest;whiteSpace=wrap;html=1;" vertex="1" parent="132">
                    <mxGeometry y="26" width="290" height="26" as="geometry"/>
                </mxCell>
                <mxCell id="134" value="" style="line;strokeWidth=1;fillColor=#eeeeee;align=left;verticalAlign=middle;spacingTop=-1;spacingLeft=3;spacingRight=3;rotatable=0;labelPosition=right;points=[];portConstraint=eastwest;strokeColor=#36393d;" vertex="1" parent="132">
                    <mxGeometry y="52" width="290" height="8" as="geometry"/>
                </mxCell>
                <mxCell id="135" value="+ CheepCreateValidator()" style="text;align=left;verticalAlign=top;spacingLeft=4;spacingRight=4;overflow=hidden;rotatable=0;points=[[0,0.5],[1,0.5]];portConstraint=eastwest;whiteSpace=wrap;html=1;" vertex="1" parent="132">
                    <mxGeometry y="60" width="290" height="26" as="geometry"/>
                </mxCell>
                <mxCell id="136" value="«interface»&lt;br&gt;&lt;b&gt;AbstractValidator&lt;/b&gt;" style="html=1;whiteSpace=wrap;" vertex="1" parent="1">
                    <mxGeometry x="4075" y="574.5" width="110" height="50" as="geometry"/>
                </mxCell>
                <mxCell id="137" value="CheepCreateDTO" style="swimlane;fontStyle=1;align=center;verticalAlign=top;childLayout=stackLayout;horizontal=1;startSize=26;horizontalStack=0;resizeParent=1;resizeParentMax=0;resizeLast=0;collapsible=1;marginBottom=0;whiteSpace=wrap;html=1;" vertex="1" parent="1">
                    <mxGeometry x="4385" y="542" width="160" height="70" as="geometry"/>
                </mxCell>
                <mxCell id="138" value="+ Author string&lt;br&gt;+ Text string" style="text;strokeColor=none;fillColor=none;align=left;verticalAlign=top;spacingLeft=4;spacingRight=4;overflow=hidden;rotatable=0;points=[[0,0.5],[1,0.5]];portConstraint=eastwest;whiteSpace=wrap;html=1;" vertex="1" parent="137">
                    <mxGeometry y="26" width="160" height="44" as="geometry"/>
                </mxCell>
                <mxCell id="139" value="«interface»&lt;br&gt;&lt;b&gt;ICheepRepository&lt;/b&gt;" style="html=1;whiteSpace=wrap;" vertex="1" parent="1">
                    <mxGeometry x="4415" y="730" width="110" height="50" as="geometry"/>
                </mxCell>
                <mxCell id="140" value="«interface»&lt;br&gt;&lt;b&gt;IAuthorRepository&lt;/b&gt;" style="html=1;whiteSpace=wrap;" vertex="1" parent="1">
                    <mxGeometry x="4285" y="810" width="110" height="50" as="geometry"/>
                </mxCell>
                <mxCell id="141" value="«interface»&lt;br&gt;&lt;b&gt;ICheepService&lt;/b&gt;" style="html=1;whiteSpace=wrap;" vertex="1" parent="1">
                    <mxGeometry x="4145" y="335" width="110" height="50" as="geometry"/>
                </mxCell>
                <mxCell id="142" value="" style="endArrow=block;endFill=1;html=1;edgeStyle=orthogonalEdgeStyle;align=left;verticalAlign=top;rounded=0;exitX=1;exitY=0.5;exitDx=0;exitDy=0;" edge="1" parent="1" source="133" target="138">
                    <mxGeometry x="-1" relative="1" as="geometry">
                        <mxPoint x="4265" y="664.6199999999999" as="sourcePoint"/>
                        <mxPoint x="4511.48" y="664.0279999999998" as="targetPoint"/>
                    </mxGeometry>
                </mxCell>
                <mxCell id="143" value="Author, text" style="edgeLabel;resizable=0;html=1;align=left;verticalAlign=bottom;" connectable="0" vertex="1" parent="142">
                    <mxGeometry x="-1" relative="1" as="geometry">
                        <mxPoint x="40" y="-131" as="offset"/>
                    </mxGeometry>
                </mxCell>
                <mxCell id="144" value="Cheeps*" style="text;html=1;strokeColor=none;fillColor=none;align=center;verticalAlign=middle;whiteSpace=wrap;rounded=0;" vertex="1" parent="1">
                    <mxGeometry x="4205" y="484" width="60" height="30" as="geometry"/>
                </mxCell>
                <mxCell id="145" style="edgeStyle=none;html=1;entryX=0;entryY=0.5;entryDx=0;entryDy=0;fontColor=#030303;endArrow=none;endFill=0;" edge="1" parent="1" source="146" target="168">
                    <mxGeometry relative="1" as="geometry">
                        <Array as="points">
                            <mxPoint x="3590" y="455"/>
                            <mxPoint x="3640" y="245"/>
                            <mxPoint x="3790" y="115"/>
                        </Array>
                    </mxGeometry>
                </mxCell>
                <mxCell id="146" value="Author" style="swimlane;fontStyle=1;align=center;verticalAlign=top;childLayout=stackLayout;horizontal=1;startSize=26;horizontalStack=0;resizeParent=1;resizeParentMax=0;resizeLast=0;collapsible=1;marginBottom=0;whiteSpace=wrap;html=1;" vertex="1" parent="1">
                    <mxGeometry x="3565" y="574.5" width="190" height="100" as="geometry"/>
                </mxCell>
                <mxCell id="147" style="edgeStyle=none;html=1;entryX=0.5;entryY=0;entryDx=0;entryDy=0;fontColor=#030303;endArrow=classic;endFill=1;" edge="1" parent="1" source="148" target="146">
                    <mxGeometry relative="1" as="geometry">
                        <Array as="points">
                            <mxPoint x="3660" y="415"/>
                        </Array>
                    </mxGeometry>
                </mxCell>
                <mxCell id="148" value="Cheep" style="swimlane;fontStyle=1;align=center;verticalAlign=top;childLayout=stackLayout;horizontal=1;startSize=26;horizontalStack=0;resizeParent=1;resizeParentMax=0;resizeLast=0;collapsible=1;marginBottom=0;whiteSpace=wrap;html=1;" vertex="1" parent="1">
                    <mxGeometry x="3760" y="364" width="190" height="100" as="geometry"/>
                </mxCell>
                <mxCell id="149" value="+ CheepID int&lt;br&gt;+ Author author&lt;br&gt;+ Text string&lt;br&gt;+ Timestamp Datetime" style="text;strokeColor=none;fillColor=none;align=left;verticalAlign=top;spacingLeft=4;spacingRight=4;overflow=hidden;rotatable=0;points=[[0,0.5],[1,0.5]];portConstraint=eastwest;whiteSpace=wrap;html=1;" vertex="1" parent="148">
                    <mxGeometry y="26" width="190" height="74" as="geometry"/>
                </mxCell>
                <mxCell id="150" style="edgeStyle=none;html=1;entryX=0.5;entryY=1;entryDx=0;entryDy=0;fontColor=#080808;endArrow=block;endFill=0;" edge="1" parent="1" source="152" target="140">
                    <mxGeometry relative="1" as="geometry">
                        <Array as="points">
                            <mxPoint x="4545" y="964"/>
                            <mxPoint x="4340" y="964"/>
                        </Array>
                    </mxGeometry>
                </mxCell>
                <mxCell id="151" style="edgeStyle=none;html=1;entryX=1;entryY=0.5;entryDx=0;entryDy=0;fontColor=#080808;endArrow=classic;endFill=1;" edge="1" parent="1" source="152" target="164">
                    <mxGeometry relative="1" as="geometry">
                        <Array as="points">
                            <mxPoint x="4225" y="1104"/>
                            <mxPoint x="4225" y="1022"/>
                        </Array>
                    </mxGeometry>
                </mxCell>
                <mxCell id="152" value="AuthorRepository" style="swimlane;fontStyle=1;align=center;verticalAlign=top;childLayout=stackLayout;horizontal=1;startSize=26;horizontalStack=0;resizeParent=1;resizeParentMax=0;resizeLast=0;collapsible=1;marginBottom=0;whiteSpace=wrap;html=1;" vertex="1" parent="1">
                    <mxGeometry x="4355" y="1042" width="380" height="136" as="geometry"/>
                </mxCell>
                <mxCell id="153" value="" style="line;strokeWidth=1;fillColor=none;align=left;verticalAlign=middle;spacingTop=-1;spacingLeft=3;spacingRight=3;rotatable=0;labelPosition=right;points=[];portConstraint=eastwest;strokeColor=inherit;" vertex="1" parent="152">
                    <mxGeometry y="26" width="380" height="8" as="geometry"/>
                </mxCell>
                <mxCell id="154" value="+ AuthorRepository (ChirpDBContext context)&lt;br&gt;+ addAuthor(string name, string email)&lt;br&gt;+ getAuthorByID(int ID)&lt;br&gt;+ getAuthorByName(string name)&lt;br&gt;+ getAuthorByEmail(string email)&lt;br&gt;+ getAllCheepsFromAuthor(string author, ChirpDBContext context)" style="text;strokeColor=none;fillColor=none;align=left;verticalAlign=top;spacingLeft=4;spacingRight=4;overflow=hidden;rotatable=0;points=[[0,0.5],[1,0.5]];portConstraint=eastwest;whiteSpace=wrap;html=1;" vertex="1" parent="152">
                    <mxGeometry y="34" width="380" height="102" as="geometry"/>
                </mxCell>
                <mxCell id="155" style="edgeStyle=none;html=1;entryX=1;entryY=0.5;entryDx=0;entryDy=0;fontColor=#080808;endArrow=block;endFill=0;" edge="1" parent="1" source="156" target="139">
                    <mxGeometry relative="1" as="geometry">
                        <Array as="points">
                            <mxPoint x="4510" y="364"/>
                            <mxPoint x="4660" y="364"/>
                            <mxPoint x="4660" y="755"/>
                        </Array>
                    </mxGeometry>
                </mxCell>
                <mxCell id="156" value="CheepRepository" style="swimlane;fontStyle=1;align=center;verticalAlign=top;childLayout=stackLayout;horizontal=1;startSize=26;horizontalStack=0;resizeParent=1;resizeParentMax=0;resizeLast=0;collapsible=1;marginBottom=0;whiteSpace=wrap;html=1;" vertex="1" parent="1">
                    <mxGeometry x="4265" y="35" width="490" height="230" as="geometry"/>
                </mxCell>
                <mxCell id="157" value="- db ChirpDBContext&lt;br&gt;- _validator&amp;nbsp;AbstractValidator&amp;lt;&lt;font style=&quot;font-size: 12px;&quot;&gt;CheepCreateDTO&lt;/font&gt;&lt;span style=&quot;font-family: Consolas, &amp;quot;Courier New&amp;quot;, monospace; font-size: 14px;&quot;&gt;&amp;gt;&lt;/span&gt;" style="text;strokeColor=none;fillColor=none;align=left;verticalAlign=top;spacingLeft=4;spacingRight=4;overflow=hidden;rotatable=0;points=[[0,0.5],[1,0.5]];portConstraint=eastwest;whiteSpace=wrap;html=1;" vertex="1" parent="156">
                    <mxGeometry y="26" width="490" height="44" as="geometry"/>
                </mxCell>
                <mxCell id="158" value="" style="line;strokeWidth=1;fillColor=none;align=left;verticalAlign=middle;spacingTop=-1;spacingLeft=3;spacingRight=3;rotatable=0;labelPosition=right;points=[];portConstraint=eastwest;strokeColor=inherit;" vertex="1" parent="156">
                    <mxGeometry y="70" width="490" height="8" as="geometry"/>
                </mxCell>
                <mxCell id="159" value="&lt;font style=&quot;font-size: 12px;&quot;&gt;+&amp;nbsp;CheepRepository(ChirpDBContext db)AbstractValidator&amp;lt;CheepCreateDTO&amp;gt;? validator)&lt;/font&gt;&lt;br&gt;+ AddCheep(int authorId, string text)&lt;br&gt;+ GetCheeps(int pageNum)&lt;br&gt;+ GetCheepsFromAuthor(string author, int pageNum)&lt;br&gt;+ GetCountOfAllCheeps()&lt;br&gt;+ GetCountOfAllCheepFromAuthor(string author)&lt;br&gt;- GetAuthorById(int id)&lt;br&gt;+ Create(CheepCreateDTO cheep)" style="text;strokeColor=none;fillColor=none;align=left;verticalAlign=top;spacingLeft=4;spacingRight=4;overflow=hidden;rotatable=0;points=[[0,0.5],[1,0.5]];portConstraint=eastwest;whiteSpace=wrap;html=1;" vertex="1" parent="156">
                    <mxGeometry y="78" width="490" height="152" as="geometry"/>
                </mxCell>
                <mxCell id="160" style="edgeStyle=none;html=1;entryX=0.474;entryY=0.939;entryDx=0;entryDy=0;entryPerimeter=0;fontColor=#080808;endArrow=classic;endFill=1;" edge="1" parent="1" source="163" target="171">
                    <mxGeometry relative="1" as="geometry">
                        <Array as="points">
                            <mxPoint x="3920" y="904"/>
                            <mxPoint x="3655" y="904"/>
                        </Array>
                    </mxGeometry>
                </mxCell>
                <mxCell id="161" style="edgeStyle=none;html=1;entryX=0.488;entryY=0.992;entryDx=0;entryDy=0;entryPerimeter=0;fontColor=#080808;endArrow=classic;endFill=1;" edge="1" parent="1" source="163" target="149">
                    <mxGeometry relative="1" as="geometry">
                        <Array as="points">
                            <mxPoint x="3920" y="904"/>
                            <mxPoint x="3850" y="904"/>
                        </Array>
                    </mxGeometry>
                </mxCell>
                <mxCell id="162" style="edgeStyle=none;html=1;fontColor=#030303;endArrow=classic;endFill=1;" edge="1" parent="1" source="163" target="170">
                    <mxGeometry relative="1" as="geometry">
                        <Array as="points">
                            <mxPoint x="3920" y="755"/>
                            <mxPoint x="3810" y="755"/>
                            <mxPoint x="3810" y="515"/>
                            <mxPoint x="3720" y="515"/>
                            <mxPoint x="3720" y="245"/>
                            <mxPoint x="3995" y="245"/>
                        </Array>
                    </mxGeometry>
                </mxCell>
                <mxCell id="163" value="ChirpDBContext" style="swimlane;fontStyle=1;align=center;verticalAlign=top;childLayout=stackLayout;horizontal=1;startSize=26;horizontalStack=0;resizeParent=1;resizeParentMax=0;resizeLast=0;collapsible=1;marginBottom=0;whiteSpace=wrap;html=1;" vertex="1" parent="1">
                    <mxGeometry x="3695" y="974" width="450" height="120" as="geometry"/>
                </mxCell>
                <mxCell id="164" value="+ Cheeps DbSet&amp;lt;Cheep&amp;gt;&lt;br&gt;+ Authors DbSet&amp;lt;Author&amp;gt;" style="text;strokeColor=none;fillColor=none;align=left;verticalAlign=top;spacingLeft=4;spacingRight=4;overflow=hidden;rotatable=0;points=[[0,0.5],[1,0.5]];portConstraint=eastwest;whiteSpace=wrap;html=1;" vertex="1" parent="163">
                    <mxGeometry y="26" width="450" height="44" as="geometry"/>
                </mxCell>
                <mxCell id="165" value="" style="line;strokeWidth=1;fillColor=none;align=left;verticalAlign=middle;spacingTop=-1;spacingLeft=3;spacingRight=3;rotatable=0;labelPosition=right;points=[];portConstraint=eastwest;strokeColor=inherit;" vertex="1" parent="163">
                    <mxGeometry y="70" width="450" height="8" as="geometry"/>
                </mxCell>
                <mxCell id="166" value="+ ChirpDBContext(DbContextOptions&amp;lt;ChirpDBContext&amp;gt; options) : base(options)&lt;br&gt;# OnModelCreating(ModelBuilder modelBuilder)" style="text;strokeColor=none;fillColor=none;align=left;verticalAlign=top;spacingLeft=4;spacingRight=4;overflow=hidden;rotatable=0;points=[[0,0.5],[1,0.5]];portConstraint=eastwest;whiteSpace=wrap;html=1;" vertex="1" parent="163">
                    <mxGeometry y="78" width="450" height="42" as="geometry"/>
                </mxCell>
                <mxCell id="167" value="Follow" style="swimlane;fontStyle=1;align=center;verticalAlign=top;childLayout=stackLayout;horizontal=1;startSize=26;horizontalStack=0;resizeParent=1;resizeParentMax=0;resizeLast=0;collapsible=1;marginBottom=0;whiteSpace=wrap;html=1;" vertex="1" parent="1">
                    <mxGeometry x="3915" y="57" width="160" height="86" as="geometry"/>
                </mxCell>
                <mxCell id="168" value="+ field: type" style="text;strokeColor=none;fillColor=none;align=left;verticalAlign=top;spacingLeft=4;spacingRight=4;overflow=hidden;rotatable=0;points=[[0,0.5],[1,0.5]];portConstraint=eastwest;whiteSpace=wrap;html=1;" vertex="1" parent="167">
                    <mxGeometry y="26" width="160" height="26" as="geometry"/>
                </mxCell>
                <mxCell id="169" value="" style="line;strokeWidth=1;fillColor=none;align=left;verticalAlign=middle;spacingTop=-1;spacingLeft=3;spacingRight=3;rotatable=0;labelPosition=right;points=[];portConstraint=eastwest;strokeColor=inherit;" vertex="1" parent="167">
                    <mxGeometry y="52" width="160" height="8" as="geometry"/>
                </mxCell>
                <mxCell id="170" value="+ method(type): type" style="text;strokeColor=none;fillColor=none;align=left;verticalAlign=top;spacingLeft=4;spacingRight=4;overflow=hidden;rotatable=0;points=[[0,0.5],[1,0.5]];portConstraint=eastwest;whiteSpace=wrap;html=1;" vertex="1" parent="167">
                    <mxGeometry y="60" width="160" height="26" as="geometry"/>
                </mxCell>
                <mxCell id="171" value="+ int AthorID&lt;br style=&quot;border-color: var(--border-color);&quot;&gt;+ string Name&lt;br style=&quot;border-color: var(--border-color);&quot;&gt;+ string Email&lt;br style=&quot;border-color: var(--border-color);&quot;&gt;+ List &amp;lt;CheepDTO&amp;gt; Cheeps" style="text;strokeColor=none;fillColor=none;align=left;verticalAlign=top;spacingLeft=4;spacingRight=4;overflow=hidden;rotatable=0;points=[[0,0.5],[1,0.5]];portConstraint=eastwest;whiteSpace=wrap;html=1;" vertex="1" parent="1">
                    <mxGeometry x="3565" y="604.5" width="190" height="74" as="geometry"/>
                </mxCell>
                <mxCell id="172" value="ChirpDBContext*" style="text;html=1;strokeColor=none;fillColor=none;align=center;verticalAlign=middle;whiteSpace=wrap;rounded=0;" vertex="1" parent="1">
                    <mxGeometry x="4165" y="994" width="60" height="30" as="geometry"/>
                </mxCell>
                <mxCell id="173" value="Author*" style="text;html=1;strokeColor=none;fillColor=none;align=center;verticalAlign=middle;whiteSpace=wrap;rounded=0;" vertex="1" parent="1">
                    <mxGeometry x="3655" y="678.5" width="60" height="30" as="geometry"/>
                </mxCell>
                <mxCell id="174" value="Cheep*" style="text;html=1;strokeColor=none;fillColor=none;align=center;verticalAlign=middle;whiteSpace=wrap;rounded=0;" vertex="1" parent="1">
                    <mxGeometry x="3855" y="464" width="60" height="30" as="geometry"/>
                </mxCell>
                <mxCell id="175" value="" style="rounded=0;whiteSpace=wrap;html=1;" vertex="1" parent="1">
                    <mxGeometry x="3655" y="1454" width="1270" height="400" as="geometry"/>
                </mxCell>
                <mxCell id="176" style="edgeStyle=none;html=1;entryX=0.5;entryY=0;entryDx=0;entryDy=0;fontColor=#030303;endArrow=classic;endFill=1;" edge="1" parent="1" source="177" target="141">
                    <mxGeometry relative="1" as="geometry">
                        <Array as="points">
                            <mxPoint x="3450" y="1215"/>
                            <mxPoint x="3320" y="755"/>
                            <mxPoint x="3370" y="255"/>
                            <mxPoint x="3760" y="-165"/>
                            <mxPoint x="4200" y="-165"/>
                        </Array>
                    </mxGeometry>
                </mxCell>
                <mxCell id="177" value="" style="rounded=0;whiteSpace=wrap;html=1;strokeColor=#3333FF;" vertex="1" parent="1">
                    <mxGeometry x="3655" y="1454" width="1270" height="400" as="geometry"/>
                </mxCell>
                <mxCell id="178" value="&lt;font style=&quot;font-size: 20px;&quot;&gt;Pages&lt;/font&gt;" style="text;html=1;strokeColor=none;fillColor=none;align=center;verticalAlign=middle;whiteSpace=wrap;rounded=0;" vertex="1" parent="1">
                    <mxGeometry x="4260" y="1454" width="60" height="30" as="geometry"/>
                </mxCell>
                <mxCell id="179" style="edgeStyle=orthogonalEdgeStyle;rounded=0;orthogonalLoop=1;jettySize=auto;html=1;entryX=0;entryY=0.5;entryDx=0;entryDy=0;" edge="1" parent="1" source="180" target="203">
                    <mxGeometry relative="1" as="geometry"/>
                </mxCell>
                <mxCell id="180" value="Public.cshtml" style="html=1;whiteSpace=wrap;" vertex="1" parent="1">
                    <mxGeometry x="3680" y="1794" width="110" height="50" as="geometry"/>
                </mxCell>
                <mxCell id="181" value="UserPage.cshtml" style="html=1;whiteSpace=wrap;" vertex="1" parent="1">
                    <mxGeometry x="4245" y="1758" width="110" height="50" as="geometry"/>
                </mxCell>
                <mxCell id="182" value="UserTimeline.cshtml" style="html=1;whiteSpace=wrap;" vertex="1" parent="1">
                    <mxGeometry x="4770" y="1518" width="120" height="50" as="geometry"/>
                </mxCell>
                <mxCell id="183" value="CheepModel" style="swimlane;fontStyle=1;align=center;verticalAlign=top;childLayout=stackLayout;horizontal=1;startSize=26;horizontalStack=0;resizeParent=1;resizeParentMax=0;resizeLast=0;collapsible=1;marginBottom=0;whiteSpace=wrap;html=1;" vertex="1" parent="1">
                    <mxGeometry x="3975" y="1708" width="240" height="130" as="geometry"/>
                </mxCell>
                <mxCell id="184" value="+ _service ICheepService&lt;br&gt;+ Author string&lt;br&gt;+ CheepMessage string" style="text;strokeColor=none;fillColor=none;align=left;verticalAlign=top;spacingLeft=4;spacingRight=4;overflow=hidden;rotatable=0;points=[[0,0.5],[1,0.5]];portConstraint=eastwest;whiteSpace=wrap;html=1;" vertex="1" parent="183">
                    <mxGeometry y="26" width="240" height="54" as="geometry"/>
                </mxCell>
                <mxCell id="185" value="" style="line;strokeWidth=1;fillColor=none;align=left;verticalAlign=middle;spacingTop=-1;spacingLeft=3;spacingRight=3;rotatable=0;labelPosition=right;points=[];portConstraint=eastwest;strokeColor=inherit;" vertex="1" parent="183">
                    <mxGeometry y="80" width="240" height="8" as="geometry"/>
                </mxCell>
                <mxCell id="186" value="+ CheepModel(ICheepService service)&lt;br&gt;+ OnPost()" style="text;strokeColor=none;fillColor=none;align=left;verticalAlign=top;spacingLeft=4;spacingRight=4;overflow=hidden;rotatable=0;points=[[0,0.5],[1,0.5]];portConstraint=eastwest;whiteSpace=wrap;html=1;" vertex="1" parent="183">
                    <mxGeometry y="88" width="240" height="42" as="geometry"/>
                </mxCell>
                <mxCell id="187" style="edgeStyle=orthogonalEdgeStyle;rounded=0;orthogonalLoop=1;jettySize=auto;html=1;entryX=0.75;entryY=1;entryDx=0;entryDy=0;endArrow=block;endFill=0;" edge="1" parent="1" source="188" target="197">
                    <mxGeometry relative="1" as="geometry">
                        <Array as="points">
                            <mxPoint x="4495" y="1638"/>
                            <mxPoint x="4293" y="1638"/>
                        </Array>
                    </mxGeometry>
                </mxCell>
                <mxCell id="188" value="UserPage" style="swimlane;fontStyle=1;align=center;verticalAlign=top;childLayout=stackLayout;horizontal=1;startSize=26;horizontalStack=0;resizeParent=1;resizeParentMax=0;resizeLast=0;collapsible=1;marginBottom=0;whiteSpace=wrap;html=1;" vertex="1" parent="1">
                    <mxGeometry x="4415" y="1708" width="160" height="84" as="geometry"/>
                </mxCell>
                <mxCell id="189" value="+ field: type" style="text;strokeColor=none;fillColor=none;align=left;verticalAlign=top;spacingLeft=4;spacingRight=4;overflow=hidden;rotatable=0;points=[[0,0.5],[1,0.5]];portConstraint=eastwest;whiteSpace=wrap;html=1;" vertex="1" parent="188">
                    <mxGeometry y="26" width="160" height="24" as="geometry"/>
                </mxCell>
                <mxCell id="190" value="" style="line;strokeWidth=1;fillColor=none;align=left;verticalAlign=middle;spacingTop=-1;spacingLeft=3;spacingRight=3;rotatable=0;labelPosition=right;points=[];portConstraint=eastwest;strokeColor=inherit;" vertex="1" parent="188">
                    <mxGeometry y="50" width="160" height="8" as="geometry"/>
                </mxCell>
                <mxCell id="191" value="+ method(type): type" style="text;strokeColor=none;fillColor=none;align=left;verticalAlign=top;spacingLeft=4;spacingRight=4;overflow=hidden;rotatable=0;points=[[0,0.5],[1,0.5]];portConstraint=eastwest;whiteSpace=wrap;html=1;" vertex="1" parent="188">
                    <mxGeometry y="58" width="160" height="26" as="geometry"/>
                </mxCell>
                <mxCell id="192" style="edgeStyle=orthogonalEdgeStyle;rounded=0;orthogonalLoop=1;jettySize=auto;html=1;entryX=1;entryY=0.5;entryDx=0;entryDy=0;endArrow=block;endFill=0;" edge="1" parent="1" source="193" target="197">
                    <mxGeometry relative="1" as="geometry">
                        <Array as="points">
                            <mxPoint x="4685" y="1598"/>
                            <mxPoint x="4405" y="1598"/>
                            <mxPoint x="4405" y="1543"/>
                        </Array>
                    </mxGeometry>
                </mxCell>
                <mxCell id="193" value="UserTimelineModel" style="swimlane;fontStyle=1;align=center;verticalAlign=top;childLayout=stackLayout;horizontal=1;startSize=26;horizontalStack=0;resizeParent=1;resizeParentMax=0;resizeLast=0;collapsible=1;marginBottom=0;whiteSpace=wrap;html=1;" vertex="1" parent="1">
                    <mxGeometry x="4625" y="1648" width="260" height="180" as="geometry"/>
                </mxCell>
                <mxCell id="194" value="+ _service ICheepService&lt;br&gt;+ CurrentPage int&lt;br&gt;+ Count int&lt;br&gt;+ CheepMessageTimeLine string&lt;br&gt;+ Cheeps List&amp;lt;CheepDTO&amp;gt;&lt;br&gt;+ PageNum int" style="text;strokeColor=none;fillColor=none;align=left;verticalAlign=top;spacingLeft=4;spacingRight=4;overflow=hidden;rotatable=0;points=[[0,0.5],[1,0.5]];portConstraint=eastwest;whiteSpace=wrap;html=1;" vertex="1" parent="193">
                    <mxGeometry y="26" width="260" height="94" as="geometry"/>
                </mxCell>
                <mxCell id="195" value="" style="line;strokeWidth=1;fillColor=none;align=left;verticalAlign=middle;spacingTop=-1;spacingLeft=3;spacingRight=3;rotatable=0;labelPosition=right;points=[];portConstraint=eastwest;strokeColor=inherit;" vertex="1" parent="193">
                    <mxGeometry y="120" width="260" height="8" as="geometry"/>
                </mxCell>
                <mxCell id="196" value="+ UserTimelineModel(ICheepService service)&lt;br&gt;+ OnGet(string author)&lt;br&gt;+ OnPost()" style="text;strokeColor=none;fillColor=none;align=left;verticalAlign=top;spacingLeft=4;spacingRight=4;overflow=hidden;rotatable=0;points=[[0,0.5],[1,0.5]];portConstraint=eastwest;whiteSpace=wrap;html=1;" vertex="1" parent="193">
                    <mxGeometry y="128" width="260" height="52" as="geometry"/>
                </mxCell>
                <mxCell id="197" value="«RazorPages»&lt;br&gt;&lt;b&gt;PageModel&lt;/b&gt;" style="html=1;whiteSpace=wrap;" vertex="1" parent="1">
                    <mxGeometry x="4210" y="1518" width="110" height="50" as="geometry"/>
                </mxCell>
                <mxCell id="198" value="PublicModel*" style="text;html=1;strokeColor=none;fillColor=none;align=center;verticalAlign=middle;whiteSpace=wrap;rounded=0;" vertex="1" parent="1">
                    <mxGeometry x="3745" y="1628" width="60" height="30" as="geometry"/>
                </mxCell>
                <mxCell id="199" style="edgeStyle=orthogonalEdgeStyle;rounded=0;orthogonalLoop=1;jettySize=auto;html=1;entryX=0;entryY=0.5;entryDx=0;entryDy=0;endArrow=block;endFill=0;" edge="1" parent="1" source="200" target="197">
                    <mxGeometry relative="1" as="geometry"/>
                </mxCell>
                <mxCell id="200" value="PublicModel" style="swimlane;fontStyle=1;align=center;verticalAlign=top;childLayout=stackLayout;horizontal=1;startSize=26;horizontalStack=0;resizeParent=1;resizeParentMax=0;resizeLast=0;collapsible=1;marginBottom=0;whiteSpace=wrap;html=1;" vertex="1" parent="1">
                    <mxGeometry x="3812" y="1501.5" width="260" height="190" as="geometry"/>
                </mxCell>
                <mxCell id="201" value="+ CurrentPage int&lt;br&gt;+ Count int&lt;br&gt;+ _service ICheepService&lt;br&gt;+ CheepMessageTimeLine string&lt;br&gt;+ Cheeps List&amp;lt;CheepDTO&amp;gt;&lt;br&gt;+ pageeNum int" style="text;strokeColor=none;fillColor=none;align=left;verticalAlign=top;spacingLeft=4;spacingRight=4;overflow=hidden;rotatable=0;points=[[0,0.5],[1,0.5]];portConstraint=eastwest;whiteSpace=wrap;html=1;" vertex="1" parent="200">
                    <mxGeometry y="26" width="260" height="94" as="geometry"/>
                </mxCell>
                <mxCell id="202" value="" style="line;strokeWidth=1;fillColor=none;align=left;verticalAlign=middle;spacingTop=-1;spacingLeft=3;spacingRight=3;rotatable=0;labelPosition=right;points=[];portConstraint=eastwest;strokeColor=inherit;" vertex="1" parent="200">
                    <mxGeometry y="120" width="260" height="8" as="geometry"/>
                </mxCell>
                <mxCell id="203" value="+ PublicModel(ICheepService service&lt;br&gt;+ OnGet()&lt;br&gt;+ OnPost()" style="text;strokeColor=none;fillColor=none;align=left;verticalAlign=top;spacingLeft=4;spacingRight=4;overflow=hidden;rotatable=0;points=[[0,0.5],[1,0.5]];portConstraint=eastwest;whiteSpace=wrap;html=1;" vertex="1" parent="200">
                    <mxGeometry y="128" width="260" height="62" as="geometry"/>
                </mxCell>
                <mxCell id="204" style="edgeStyle=orthogonalEdgeStyle;rounded=0;orthogonalLoop=1;jettySize=auto;html=1;entryX=0.014;entryY=0.158;entryDx=0;entryDy=0;entryPerimeter=0;" edge="1" parent="1" source="181" target="188">
                    <mxGeometry relative="1" as="geometry">
                        <Array as="points">
                            <mxPoint x="4300" y="1721"/>
                        </Array>
                    </mxGeometry>
                </mxCell>
                <mxCell id="205" value="UserPage*" style="text;html=1;strokeColor=none;fillColor=none;align=center;verticalAlign=middle;whiteSpace=wrap;rounded=0;" vertex="1" parent="1">
                    <mxGeometry x="4345" y="1692" width="60" height="30" as="geometry"/>
                </mxCell>
                <mxCell id="206" style="edgeStyle=orthogonalEdgeStyle;rounded=0;orthogonalLoop=1;jettySize=auto;html=1;entryX=0.312;entryY=1.057;entryDx=0;entryDy=0;entryPerimeter=0;endArrow=block;endFill=0;" edge="1" parent="1" source="183" target="197">
                    <mxGeometry relative="1" as="geometry">
                        <Array as="points">
                            <mxPoint x="4175" y="1638"/>
                            <mxPoint x="4244" y="1638"/>
                        </Array>
                    </mxGeometry>
                </mxCell>
                <mxCell id="207" style="edgeStyle=orthogonalEdgeStyle;rounded=0;orthogonalLoop=1;jettySize=auto;html=1;entryX=0.786;entryY=0.009;entryDx=0;entryDy=0;entryPerimeter=0;" edge="1" parent="1" source="182" target="193">
                    <mxGeometry relative="1" as="geometry"/>
                </mxCell>
                <mxCell id="208" value="UserTimelineModel*" style="text;html=1;strokeColor=none;fillColor=none;align=center;verticalAlign=middle;whiteSpace=wrap;rounded=0;" vertex="1" parent="1">
                    <mxGeometry x="4745" y="1618" width="60" height="30" as="geometry"/>
                </mxCell>
                <mxCell id="209" value="Author*" style="text;html=1;strokeColor=none;fillColor=none;align=center;verticalAlign=middle;whiteSpace=wrap;rounded=0;" vertex="1" parent="1">
                    <mxGeometry x="3670" y="542" width="60" height="30" as="geometry"/>
                </mxCell>
                <mxCell id="210" value="Follower*" style="text;html=1;strokeColor=none;fillColor=none;align=center;verticalAlign=middle;whiteSpace=wrap;rounded=0;" vertex="1" parent="1">
                    <mxGeometry x="4012" y="143" width="60" height="30" as="geometry"/>
                </mxCell>
                <mxCell id="211" value="Follower*" style="text;html=1;strokeColor=none;fillColor=none;align=center;verticalAlign=middle;whiteSpace=wrap;rounded=0;" vertex="1" parent="1">
                    <mxGeometry x="3850" y="113" width="60" height="30" as="geometry"/>
                </mxCell>
                <mxCell id="212" value="Author*" style="text;html=1;strokeColor=none;fillColor=none;align=center;verticalAlign=middle;whiteSpace=wrap;rounded=0;" vertex="1" parent="1">
                    <mxGeometry x="3565" y="542" width="60" height="30" as="geometry"/>
                </mxCell>
                <mxCell id="213" style="edgeStyle=none;html=1;entryX=1;entryY=0.5;entryDx=0;entryDy=0;fontColor=#030303;endArrow=none;endFill=0;" edge="1" parent="1" source="159" target="164">
                    <mxGeometry relative="1" as="geometry">
                        <Array as="points">
                            <mxPoint x="4860" y="195"/>
                            <mxPoint x="4850" y="1025"/>
                        </Array>
                    </mxGeometry>
                </mxCell>
                <mxCell id="214" value="IAuthorRepository*" style="text;html=1;strokeColor=none;fillColor=none;align=center;verticalAlign=middle;whiteSpace=wrap;rounded=0;" vertex="1" parent="1">
                    <mxGeometry x="4370" y="860" width="60" height="30" as="geometry"/>
                </mxCell>
                <mxCell id="215" value="CheepRepository*" style="text;html=1;strokeColor=none;fillColor=none;align=center;verticalAlign=middle;whiteSpace=wrap;rounded=0;" vertex="1" parent="1">
                    <mxGeometry x="4550" y="760" width="60" height="30" as="geometry"/>
                </mxCell>
                <mxCell id="216" value="DbInitializer" style="swimlane;fontStyle=1;align=center;verticalAlign=top;childLayout=stackLayout;horizontal=1;startSize=26;horizontalStack=0;resizeParent=1;resizeParentMax=0;resizeLast=0;collapsible=1;marginBottom=0;whiteSpace=wrap;html=1;" vertex="1" parent="1">
                    <mxGeometry x="4420" y="-465" width="290" height="52" as="geometry"/>
                </mxCell>
                <mxCell id="217" value="+ SeedDatabase(ChirpDBContext chirpContext)" style="text;strokeColor=none;fillColor=none;align=left;verticalAlign=top;spacingLeft=4;spacingRight=4;overflow=hidden;rotatable=0;points=[[0,0.5],[1,0.5]];portConstraint=eastwest;whiteSpace=wrap;html=1;" vertex="1" parent="216">
                    <mxGeometry y="26" width="290" height="26" as="geometry"/>
                </mxCell>
                <mxCell id="218" style="edgeStyle=none;html=1;entryX=0.25;entryY=0;entryDx=0;entryDy=0;fontColor=#030303;endArrow=block;endFill=0;" edge="1" parent="1" source="221" target="141">
                    <mxGeometry relative="1" as="geometry">
                        <Array as="points">
                            <mxPoint x="3950" y="-45"/>
                            <mxPoint x="4173" y="-45"/>
                        </Array>
                    </mxGeometry>
                </mxCell>
                <mxCell id="219" style="edgeStyle=none;html=1;entryX=1;entryY=0.25;entryDx=0;entryDy=0;fontColor=#030303;endArrow=classic;endFill=1;" edge="1" parent="1" source="221" target="139">
                    <mxGeometry relative="1" as="geometry">
                        <Array as="points">
                            <mxPoint x="5130" y="-65"/>
                            <mxPoint x="5130" y="745"/>
                        </Array>
                    </mxGeometry>
                </mxCell>
                <mxCell id="220" style="edgeStyle=none;html=1;entryX=1;entryY=0.5;entryDx=0;entryDy=0;fontColor=#030303;endArrow=classic;endFill=1;" edge="1" parent="1" source="221" target="140">
                    <mxGeometry relative="1" as="geometry">
                        <Array as="points">
                            <mxPoint x="5270" y="-155"/>
                            <mxPoint x="5270" y="835"/>
                        </Array>
                    </mxGeometry>
                </mxCell>
                <mxCell id="221" value="CheepService" style="swimlane;fontStyle=1;align=center;verticalAlign=top;childLayout=stackLayout;horizontal=1;startSize=26;horizontalStack=0;resizeParent=1;resizeParentMax=0;resizeLast=0;collapsible=1;marginBottom=0;whiteSpace=wrap;html=1;" vertex="1" parent="1">
                    <mxGeometry x="3690" y="-430" width="520" height="220" as="geometry"/>
                </mxCell>
                <mxCell id="222" value="+ _cheepRepository ICheepRepository&lt;br&gt;+ _authorRepository IAuthorRepository" style="text;strokeColor=none;fillColor=none;align=left;verticalAlign=top;spacingLeft=4;spacingRight=4;overflow=hidden;rotatable=0;points=[[0,0.5],[1,0.5]];portConstraint=eastwest;whiteSpace=wrap;html=1;" vertex="1" parent="221">
                    <mxGeometry y="26" width="520" height="44" as="geometry"/>
                </mxCell>
                <mxCell id="223" value="" style="line;strokeWidth=1;fillColor=none;align=left;verticalAlign=middle;spacingTop=-1;spacingLeft=3;spacingRight=3;rotatable=0;labelPosition=right;points=[];portConstraint=eastwest;strokeColor=inherit;" vertex="1" parent="221">
                    <mxGeometry y="70" width="520" height="8" as="geometry"/>
                </mxCell>
                <mxCell id="224" value="+ CheepService(ICheepRepository cheepRepository, IAuthorRepository authorrepository)&lt;br&gt;+ AddCheep(int authorid, string text)&lt;br&gt;+ GetCheeps(int pageNum)&lt;br&gt;+ CetCheepsFromAuthor(string author, int pageNum)&lt;br&gt;+ GetAuthorByName(string name)&lt;br&gt;+ GetCountOfAllCheepsFromAuthor(string author)&lt;br&gt;+ GetCountOfAllCheeps()&lt;br&gt;+ Create(CheepCreateDTO)&lt;br&gt;+ AddAuthor(string name, string email)" style="text;strokeColor=none;fillColor=none;align=left;verticalAlign=top;spacingLeft=4;spacingRight=4;overflow=hidden;rotatable=0;points=[[0,0.5],[1,0.5]];portConstraint=eastwest;whiteSpace=wrap;html=1;" vertex="1" parent="221">
                    <mxGeometry y="78" width="520" height="142" as="geometry"/>
                </mxCell>
                <mxCell id="225" value="Program" style="swimlane;fontStyle=1;align=center;verticalAlign=top;childLayout=stackLayout;horizontal=1;startSize=26;horizontalStack=0;resizeParent=1;resizeParentMax=0;resizeLast=0;collapsible=1;marginBottom=0;whiteSpace=wrap;html=1;" vertex="1" parent="1">
                    <mxGeometry x="4340" y="-345" width="160" height="34" as="geometry"/>
                </mxCell>
                <mxCell id="226" value="ICheepService*" style="text;html=1;strokeColor=none;fillColor=none;align=center;verticalAlign=middle;whiteSpace=wrap;rounded=0;" vertex="1" parent="1">
                    <mxGeometry x="4215" y="305" width="60" height="30" as="geometry"/>
                </mxCell>
                <mxCell id="227" value="CheepRepository*" style="text;html=1;strokeColor=none;fillColor=none;align=center;verticalAlign=middle;whiteSpace=wrap;rounded=0;" vertex="1" parent="1">
                    <mxGeometry x="4550" y="718" width="60" height="30" as="geometry"/>
                </mxCell>
                <mxCell id="228" value="IAuthorRepository*" style="text;html=1;strokeColor=none;fillColor=none;align=center;verticalAlign=middle;whiteSpace=wrap;rounded=0;" vertex="1" parent="1">
                    <mxGeometry x="4420" y="808" width="60" height="30" as="geometry"/>
                </mxCell>
                <mxCell id="229" value="&lt;font style=&quot;font-size: 35px;&quot;&gt;UML Class Diagram Shown with Onion architecture&lt;/font&gt;" style="text;html=1;strokeColor=none;fillColor=none;align=center;verticalAlign=middle;whiteSpace=wrap;rounded=0;" vertex="1" parent="1">
                    <mxGeometry x="3927.5" y="-940" width="615" height="30" as="geometry"/>
                </mxCell>
            </root>
        </mxGraphModel>
    </diagram>
</mxfile>